<svg width="128" height="128" viewBox="0 0 128 128" fill="none" xmlns="http://www.w3.org/2000/svg">
<g clip-path="url(#clip0)">
<rect width="128" height="128" fill="white"/>
<path d="M65 3.6293L79.1175 47.4128L79.2293 47.7594H79.5934H125.289L88.3173 74.8278L88.026 75.0411L88.1368 75.3847L102.257 119.176L65.2954 92.1153L65 91.8991L64.7046 92.1153L27.7432 119.176L41.8632 75.3847L41.974 75.0411L41.6827 74.8278L4.71067 47.7594H50.4066H50.7707L50.8825 47.4128L65 3.6293Z" fill="#32A68A" stroke="black"/>
<path fill-rule="evenodd" clip-rule="evenodd" d="M68.9412 64.2076C74.1051 62.3824 77.7894 57.6055 77.7894 52C77.7894 44.8203 71.7453 39 64.2894 39C56.8336 39 50.7894 44.8203 50.7894 52C50.7894 57.6055 54.4737 62.3824 59.6377 64.2076L50 89.5H78.5788L68.9412 64.2076Z" fill="black"/>
<g filter="url(#filter0_d)">
<mask id="path-3-inside-1" fill="white">
<path fill-rule="evenodd" clip-rule="evenodd" d="M57.2295 43.1244C53.3635 49.8205 45.1889 52.3386 38.9711 48.7487C32.7533 45.1589 30.8468 36.8205 34.7128 30.1244L26.9186 25.6244L23.4186 31.6865L19.0885 29.1865L22.5885 23.1244L19.1244 21.1244L15.6244 27.1865L11.2942 24.6865L14.7942 18.6244L11.3301 16.6244L7.83013 22.6865L3.5 20.1865L7 14.1244L9.5 9.79423L13.8301 12.2942L17.2942 14.2942L21.6244 16.7942L25.0885 18.7942L29.4186 21.2942L37.952 26.221C42.2021 22.5979 48.17 21.728 52.9711 24.5C59.1889 28.0899 61.0955 36.4283 57.2295 43.1244Z"/>
</mask>
<path fill-rule="evenodd" clip-rule="evenodd" d="M57.2295 43.1244C53.3635 49.8205 45.1889 52.3386 38.9711 48.7487C32.7533 45.1589 30.8468 36.8205 34.7128 30.1244L26.9186 25.6244L23.4186 31.6865L19.0885 29.1865L22.5885 23.1244L19.1244 21.1244L15.6244 27.1865L11.2942 24.6865L14.7942 18.6244L11.3301 16.6244L7.83013 22.6865L3.5 20.1865L7 14.1244L9.5 9.79423L13.8301 12.2942L17.2942 14.2942L21.6244 16.7942L25.0885 18.7942L29.4186 21.2942L37.952 26.221C42.2021 22.5979 48.17 21.728 52.9711 24.5C59.1889 28.0899 61.0955 36.4283 57.2295 43.1244Z" fill="#DBBA7A"/>
<path d="M34.7128 30.1244L35.5788 30.6244L36.0788 29.7583L35.2128 29.2583L34.7128 30.1244ZM26.9186 25.6244L27.4186 24.7583L26.5526 24.2583L26.0526 25.1244L26.9186 25.6244ZM23.4186 31.6865L22.9186 32.5526L23.7846 33.0526L24.2846 32.1865L23.4186 31.6865ZM19.0885 29.1865L18.2224 28.6865L17.7224 29.5526L18.5885 30.0526L19.0885 29.1865ZM22.5885 23.1244L23.4545 23.6244L23.9545 22.7583L23.0885 22.2583L22.5885 23.1244ZM19.1244 21.1244L19.6244 20.2583L18.7583 19.7583L18.2583 20.6244L19.1244 21.1244ZM15.6244 27.1865L15.1244 28.0526L15.9904 28.5526L16.4904 27.6865L15.6244 27.1865ZM11.2942 24.6865L10.4282 24.1865L9.9282 25.0526L10.7942 25.5526L11.2942 24.6865ZM14.7942 18.6244L15.6603 19.1244L16.1603 18.2583L15.2942 17.7583L14.7942 18.6244ZM11.3301 16.6244L11.8301 15.7583L10.9641 15.2583L10.4641 16.1244L11.3301 16.6244ZM7.83013 22.6865L7.33013 23.5526L8.19615 24.0526L8.69615 23.1865L7.83013 22.6865ZM3.5 20.1865L2.63397 19.6865L2.13397 20.5526L3 21.0526L3.5 20.1865ZM9.5 9.79423L10 8.9282L9.13397 8.4282L8.63397 9.29423L9.5 9.79423ZM13.8301 12.2942L13.3301 13.1603L13.8301 12.2942ZM37.952 26.221L37.452 27.0871L38.0635 27.4401L38.6008 26.982L37.952 26.221ZM38.4711 49.6147C45.2266 53.515 53.9889 50.7372 58.0955 43.6244L56.3634 42.6244C52.7381 48.9037 45.1513 51.1621 39.4711 47.8827L38.4711 49.6147ZM33.8468 29.6244C29.7402 36.7372 31.7157 45.7145 38.4711 49.6147L39.4711 47.8827C33.791 44.6032 31.9534 36.9037 35.5788 30.6244L33.8468 29.6244ZM26.4186 26.4904L34.2128 30.9904L35.2128 29.2583L27.4186 24.7583L26.4186 26.4904ZM26.0526 25.1244L22.5526 31.1865L24.2846 32.1865L27.7846 26.1244L26.0526 25.1244ZM23.9186 30.8205L19.5885 28.3205L18.5885 30.0526L22.9186 32.5526L23.9186 30.8205ZM19.9545 29.6865L23.4545 23.6244L21.7224 22.6244L18.2224 28.6865L19.9545 29.6865ZM18.6244 21.9904L22.0885 23.9904L23.0885 22.2583L19.6244 20.2583L18.6244 21.9904ZM16.4904 27.6865L19.9904 21.6244L18.2583 20.6244L14.7583 26.6865L16.4904 27.6865ZM10.7942 25.5526L15.1244 28.0526L16.1244 26.3205L11.7942 23.8205L10.7942 25.5526ZM13.9282 18.1244L10.4282 24.1865L12.1603 25.1865L15.6603 19.1244L13.9282 18.1244ZM10.8301 17.4904L14.2942 19.4904L15.2942 17.7583L11.8301 15.7583L10.8301 17.4904ZM8.69615 23.1865L12.1962 17.1244L10.4641 16.1244L6.9641 22.1865L8.69615 23.1865ZM3 21.0526L7.33013 23.5526L8.33013 21.8205L4 19.3205L3 21.0526ZM6.13397 13.6244L2.63397 19.6865L4.36603 20.6865L7.86603 14.6244L6.13397 13.6244ZM8.63397 9.29423L6.13397 13.6244L7.86603 14.6244L10.366 10.2942L8.63397 9.29423ZM14.3301 11.4282L10 8.9282L9 10.6603L13.3301 13.1603L14.3301 11.4282ZM17.7942 13.4282L14.3301 11.4282L13.3301 13.1603L16.7942 15.1603L17.7942 13.4282ZM22.1244 15.9282L17.7942 13.4282L16.7942 15.1603L21.1244 17.6603L22.1244 15.9282ZM25.5885 17.9282L22.1244 15.9282L21.1244 17.6603L24.5885 19.6603L25.5885 17.9282ZM24.5885 19.6603L28.9186 22.1603L29.9186 20.4282L25.5885 17.9282L24.5885 19.6603ZM38.452 25.355L29.9186 20.4282L28.9186 22.1603L37.452 27.0871L38.452 25.355ZM53.4711 23.634C48.2597 20.6251 41.8352 21.5966 37.3033 25.46L38.6008 26.982C42.5689 23.5992 48.0803 22.8309 52.4711 25.366L53.4711 23.634ZM58.0955 43.6244C62.2021 36.5115 60.2266 27.5342 53.4711 23.634L52.4711 25.366C58.1513 28.6455 59.9888 36.345 56.3634 42.6244L58.0955 43.6244Z" fill="black" mask="url(#path-3-inside-1)"/>
</g>
<g filter="url(#filter1_d)">
<mask id="path-5-inside-2" fill="white">
<path fill-rule="evenodd" clip-rule="evenodd" d="M73 92.1244C76.866 85.4283 85.0405 82.9102 91.2583 86.5C97.4761 90.0899 99.3827 98.4283 95.5167 105.124L103.311 109.624L106.811 103.562L111.141 106.062L107.641 112.124L111.105 114.124L114.605 108.062L118.935 110.562L115.435 116.624L118.899 118.624L122.399 112.562L126.729 115.062L123.229 121.124L120.729 125.454L116.399 122.954L112.935 120.954L108.605 118.454L105.141 116.454L100.811 113.954L92.2774 109.028C88.0274 112.651 82.0595 113.521 77.2583 110.749C71.0405 107.159 69.134 98.8205 73 92.1244Z"/>
</mask>
<path fill-rule="evenodd" clip-rule="evenodd" d="M73 92.1244C76.866 85.4283 85.0405 82.9102 91.2583 86.5C97.4761 90.0899 99.3827 98.4283 95.5167 105.124L103.311 109.624L106.811 103.562L111.141 106.062L107.641 112.124L111.105 114.124L114.605 108.062L118.935 110.562L115.435 116.624L118.899 118.624L122.399 112.562L126.729 115.062L123.229 121.124L120.729 125.454L116.399 122.954L112.935 120.954L108.605 118.454L105.141 116.454L100.811 113.954L92.2774 109.028C88.0274 112.651 82.0595 113.521 77.2583 110.749C71.0405 107.159 69.134 98.8205 73 92.1244Z" fill="#DBBA7A"/>
<path d="M95.5167 105.124L94.6506 104.624L94.1506 105.49L95.0167 105.99L95.5167 105.124ZM103.311 109.624L102.811 110.49L103.677 110.99L104.177 110.124L103.311 109.624ZM106.811 103.562L107.311 102.696L106.445 102.196L105.945 103.062L106.811 103.562ZM111.141 106.062L112.007 106.562L112.507 105.696L111.641 105.196L111.141 106.062ZM107.641 112.124L106.775 111.624L106.275 112.49L107.141 112.99L107.641 112.124ZM111.105 114.124L110.605 114.99L111.471 115.49L111.971 114.624L111.105 114.124ZM114.605 108.062L115.105 107.196L114.239 106.696L113.739 107.562L114.605 108.062ZM118.935 110.562L119.801 111.062L120.301 110.196L119.435 109.696L118.935 110.562ZM115.435 116.624L114.569 116.124L114.069 116.99L114.935 117.49L115.435 116.624ZM118.899 118.624L118.399 119.49L119.265 119.99L119.765 119.124L118.899 118.624ZM122.399 112.562L122.899 111.696L122.033 111.196L121.533 112.062L122.399 112.562ZM126.729 115.062L127.595 115.562L128.095 114.696L127.229 114.196L126.729 115.062ZM123.229 121.124L124.095 121.624L123.229 121.124ZM120.729 125.454L120.229 126.321L121.095 126.821L121.595 125.954L120.729 125.454ZM116.399 122.954L116.899 122.088L116.399 122.954ZM112.935 120.954L112.435 121.821L112.935 120.954ZM108.605 118.454L109.105 117.588L108.605 118.454ZM92.2774 109.028L92.7774 108.162L92.166 107.809L91.6287 108.267L92.2774 109.028ZM91.7583 85.634C85.0029 81.7337 76.2406 84.5115 72.134 91.6244L73.866 92.6244C77.4914 86.345 85.0781 84.0866 90.7583 87.366L91.7583 85.634ZM96.3827 105.624C100.489 98.5115 98.5137 89.5342 91.7583 85.634L90.7583 87.366C96.4385 90.6455 98.276 98.345 94.6506 104.624L96.3827 105.624ZM103.811 108.758L96.0167 104.258L95.0167 105.99L102.811 110.49L103.811 108.758ZM104.177 110.124L107.677 104.062L105.945 103.062L102.445 109.124L104.177 110.124ZM106.311 104.428L110.641 106.928L111.641 105.196L107.311 102.696L106.311 104.428ZM110.275 105.562L106.775 111.624L108.507 112.624L112.007 106.562L110.275 105.562ZM111.605 113.258L108.141 111.258L107.141 112.99L110.605 114.99L111.605 113.258ZM113.739 107.562L110.239 113.624L111.971 114.624L115.471 108.562L113.739 107.562ZM119.435 109.696L115.105 107.196L114.105 108.928L118.435 111.428L119.435 109.696ZM116.301 117.124L119.801 111.062L118.069 110.062L114.569 116.124L116.301 117.124ZM119.399 117.758L115.935 115.758L114.935 117.49L118.399 119.49L119.399 117.758ZM121.533 112.062L118.033 118.124L119.765 119.124L123.265 113.062L121.533 112.062ZM127.229 114.196L122.899 111.696L121.899 113.428L126.229 115.928L127.229 114.196ZM124.095 121.624L127.595 115.562L125.863 114.562L122.363 120.624L124.095 121.624ZM121.595 125.954L124.095 121.624L122.363 120.624L119.863 124.954L121.595 125.954ZM115.899 123.821L120.229 126.321L121.229 124.588L116.899 122.088L115.899 123.821ZM112.435 121.821L115.899 123.821L116.899 122.088L113.435 120.088L112.435 121.821ZM108.105 119.321L112.435 121.821L113.435 120.088L109.105 117.588L108.105 119.321ZM104.641 117.321L108.105 119.321L109.105 117.588L105.641 115.588L104.641 117.321ZM105.641 115.588L101.311 113.088L100.311 114.821L104.641 117.321L105.641 115.588ZM91.7774 109.894L100.311 114.821L101.311 113.088L92.7774 108.162L91.7774 109.894ZM76.7583 111.615C81.9698 114.624 88.3942 113.652 92.9262 109.789L91.6287 108.267C87.6605 111.649 82.1492 112.418 77.7583 109.883L76.7583 111.615ZM72.134 91.6244C68.0274 98.7372 70.0029 107.714 76.7583 111.615L77.7583 109.883C72.0781 106.603 70.2406 98.9037 73.866 92.6244L72.134 91.6244Z" fill="black" mask="url(#path-5-inside-2)"/>
</g>
</g>
<defs>
<filter id="filter0_d" x="-4" y="2" width="72.2295" height="61.2487" filterUnits="userSpaceOnUse" color-interpolation-filters="sRGB">
<feFlood flood-opacity="0" result="BackgroundImageFix"/>
<feColorMatrix in="SourceAlpha" type="matrix" values="0 0 0 0 0 0 0 0 0 0 0 0 0 0 0 0 0 0 127 0" result="hardAlpha"/>
<feOffset dy="4"/>
<feGaussianBlur stdDeviation="2"/>
<feComposite in2="hardAlpha" operator="out"/>
<feColorMatrix type="matrix" values="0 0 0 0 0 0 0 0 0 0 0 0 0 0 0 0 0 0 0.25 0"/>
<feBlend mode="normal" in2="BackgroundImageFix" result="effect1_dropShadow"/>
<feBlend mode="normal" in="SourceGraphic" in2="effect1_dropShadow" result="shape"/>
</filter>
<filter id="filter1_d" x="62" y="80" width="72.2295" height="61.2487" filterUnits="userSpaceOnUse" color-interpolation-filters="sRGB">
<feFlood flood-opacity="0" result="BackgroundImageFix"/>
<feColorMatrix in="SourceAlpha" type="matrix" values="0 0 0 0 0 0 0 0 0 0 0 0 0 0 0 0 0 0 127 0" result="hardAlpha"/>
<feOffset dy="4"/>
<feGaussianBlur stdDeviation="2"/>
<feComposite in2="hardAlpha" operator="out"/>
<feColorMatrix type="matrix" values="0 0 0 0 0 0 0 0 0 0 0 0 0 0 0 0 0 0 0.25 0"/>
<feBlend mode="normal" in2="BackgroundImageFix" result="effect1_dropShadow"/>
<feBlend mode="normal" in="SourceGraphic" in2="effect1_dropShadow" result="shape"/>
</filter>
<clipPath id="clip0">
<rect width="128" height="128" fill="white"/>
</clipPath>
</defs>
</svg>
